<svg xmlns="http://www.w3.org/2000/svg" xmlns:xlink="http://www.w3.org/1999/xlink" width="2000" zoomAndPan="magnify" viewBox="0 0 1500 1499.999933" height="2000" preserveAspectRatio="xMidYMid meet" version="1.0"><path fill="#000000" d="M 802.53125 697.46875 L 1102.46875 697.46875 C 1131.277344 697.46875 1155 721.191406 1155 750 C 1155 778.808594 1131.277344 802.53125 1102.46875 802.53125 L 802.53125 802.53125 L 802.53125 1102.46875 C 802.53125 1131.277344 778.808594 1155 750 1155 C 721.191406 1155 697.46875 1131.277344 697.46875 1102.46875 L 697.46875 802.53125 L 397.53125 802.53125 C 368.722656 802.53125 345 778.808594 345 750 C 345 721.191406 368.722656 697.46875 397.53125 697.46875 L 697.46875 697.46875 L 697.46875 397.53125 C 697.46875 368.722656 721.191406 345 750 345 C 778.808594 345 802.53125 368.722656 802.53125 397.53125 Z M 802.53125 697.46875 " fill-opacity="1" fill-rule="nonzero"/></svg>